<svg width="380" height="380" xmlns="http://www.w3.org/2000/svg"><path d="M126.31 150.885c-.78.789-3.704-2.714-1.507-3.155.8.763.205 1.341.695 2.062 1.03-.852-.443-2.029 1.27-2.792.787 1.419-.703 2.538-.459 3.885zM167.18 206c-.168-1.05-.604-2.127 1.038-3 1.466 1.178.729 2.14-1.037 3zM104 208.214c-.18 2.484-3.59-1.674-5-2.094 2.174-.72 4.21 2.032 5 2.094zM70.925 196c.548 1.712-2.066.682-2.896 2-.26-2.162 1.26-1.128 2.896-2zM25.06 167c.045.647.101 1.29.848.946.66 1.607-2.408 1.276-2.907-.314.663-.047 1.327-.103 2.06-.632zM8 164.048c1.537-.452 3.061 2.446 1 2.952-1.765-1.136-.44-1.945-1-2.952zm96.713-65.22c-2.72-.134-3.097 4.15-1.37 4.357-.449-1.572 3.68-2.542 1.37-4.357zm5.287 6.14c-5.28 1.577-2.936 2.495-7.079 1.793-.318-.798.255-1.48-.159-2.29-.83.646-.956 1.387-.685 2.18-2.167-.846-3.544-2.778-4.547-5.137.79-.653 1.584-1.305 2.377-1.958-.833-1.437-2.135 1.122-2.907-.835 5.667-4.78 5.343-3.556 10.3-3.639 2.373 1.34-.14 5.207 2.695 2.625-.422 2.925-1.477 4.448.005 7.262zm30.572 37.555c-.167.85 1.254 1.896-.325 2.574-.753-.673-.192-1.186-.653-1.824-1.792.798.105 2.047-1.686 2.844-.558-2.037-2.326-1.005-3.972-.05-.769.777-.46 1.687.546 2.682-1.147-.127-1.711.838-1.576 1.985-.628.336-.654-.274-.38-.482-1.583-.305-3.556 2.484-5.06 1.56-.177-1.765 1.098-3.353.65-5.15-1.785-.4-2.822.861-5.116-1.5 1.323-.353 2.709-2.755.706-2.094-1.066-1.945 3.844.437 1.144 1.449 1.985 1.03.733-1.881 1.195-2.47-.63-.84-1.352-.97-2.122-.695.577-4.554 1.733-1.486 3.641-4.347.997 1.35 1.584.345 1.525 1.93.684-2.863 3.711-.883 5.55-1.935 2.06 2.515.03 3.192 3.157 3.002.319 1.136-.836.753-1.468 1.128 2.433.127 1.772 3.025 4.244 1.393zm4.829 16.915c-1.115.613-2.077.035-3.117.056.55.638.61 1.219.657 1.796.596-.112 3.928-2.006 2.46-1.852zm-2.62 6.557c-.735-.04-1.523.325-2.351 1.005-.624-.9-1.41-.55-2.023-1.531 2.737-1.183-2.414-1.847-1.258-.58-.897.342-.296-.755-1.149-1.427 2.852-.117-.704-.94.218-1.692 1.24-.967.884-.097 1.258.58 1.261-1.834 1.084-.458.325-2.536 1.786.2.827-.934.709-2.062 2.059 1.694 3.85-2.21 4.976-.69.25-.686-.373-1.476.71-2.062.68.702 5.641 2.247 5.522 1.953 1.395.43.317 2.862 3.282 2.112-.667 1.76-2.387.878-.818 2.906-1.033-.075-1.343.348-.6 1.217l-3.444 2.592c-1.866-1.39-4.677-1.175-7.164-3.009-.519 1.835 1.796 1.326 1.807 3.224zm-31.35-36.522c-1.336-1.306.803-2.192 1.304-3.276-1.1-.515-2.82-.234-1.525-1.9-1.707-.058-2.174-1.007-3.21.9.72-3.54 2.217-3.546 3.478-6.447 1-.894 1.87-.789 2.613.315-1.714-1.653.582-3.008 3.046-3.065 2.645 2.594 2.8 6.74 1.257 7.446.82.511 1.685.65 2.504 1.161.478-.626-2.94-2.474.052-3.855-.78 1.602.248 2.765 2.122.685 1.542 1.187-1.222 1.855.928 3.115-1.552.611-3.177 1.797-4.57 1.166-.893 1.102 1.187.293.653 1.795-1.221 1.208-4.432.442-4.298 2.486-1.373.075-3.319-3.186-4.354-.526zm57.477 69.415c.618-.336.644.276.375.484 1.224.944 2.31-1.69 2.034-2.372 2.766.737 5.266.069 7.502 2.69-1.82 1.61-.53 3.609 1.181 4.525-3.39 1.105-9.254-1.618-10.23 1.785-.894-1.34 1.235-4.208-1.77-3.286.684-1.273 1.572-1.62.908-3.826zm-12.352-15.134c-1.867-.293-1.141 4.284-3.767 2.984-1.158-1.784 2.675-.188 1.516-1.972-.963-.398-.605.691-2.25 1.014-.021-1.013.553-1.95-.055-3.036 1.107-.312.735.818 1.1 1.438l.943-.746c.858-1.111-1.143-.295-.63-1.811 2.588-.447.223-1.323 2.459-2.717.726.668.187 1.176.628 1.81.758-1.581.617-2.176 2.46-2.718 1 2.403 4.247 2.567 5.92 3.777.624 1.089-1.41 1.842-.785 2.93-1.564-.513-1.673-.128-2.721 1.387-.719-.813-.197-1.468-.996-2.29-1.519.672-.152 1.712-.312 2.557-.574.046-1.148.106-1.78.639.04-.716-.322-1.482-.998-2.288-1.175.572-.372 1.394.16 2.183-1.836.42-1.94-2.503-.892-3.141zm-22.367-36.688c.703-.374 1.223.926 1.811 1.607-2.185.893.23 2.435-1.956 3.327-.392-1.706 1.997-3.021.145-4.934zm-42.057-19.98c.925.968-1.59 1.529-2.101 2.327-.936-1.248.94-2.505 2.1-2.328zM90.357 120c3.447 1.635 2.392 3.676 6.643 4.226-.681.038-1.359.088-.996.741a57.907 57.907 0 0 1-2.656-.315c-.33.39-.108.847-.607 1.216 1.123.904 2.967 1.695 2.713 3.33-2.59.104-2.558 1.431-5.147 1.537-2.148-1.831-.303-3.187-.721-4.812-1.689 1.518-.951 3.324-.661 5.077-.633-.65-2.167-.412-3.708-2.59.604-.046 1.211-.105 1.88-.635l-.775-.95c-1.155-.869-.306 1.154-1.881.634-.034-.862-.384-1.762-1.441-2.747 1.284.119 2.308.72.608-1.217 2.626.207 3.29-3.044 5.92-.586.802-.906-1.109-2.136.829-2.909zm32.067 40.932c.746 1.228-1.706.445-2.287 1.007-.43.582-.023 3.355 1.385 2.752.974-1.506-1.689-.732-1.011-2.275.728-.07 1.35.712 2.18-.162.32.758-.257 1.404.16 2.172 1.295.012 2.462 1.052 3.99-.797.066.726-.717 1.345.159 2.17-4.955 3.018-2.755 2.92-6.697 5.193-.36-.617.558-1.077 1.062-1.588-1.57-.844-2.493 1.935-3.349 2.596 1.127-2.471-3.778-2.19-3.726-4.763 1.366.936.807.496 1.063-1.59-1.5-1.061-1.136.02-2.287 1.01-.357-1.233.334-3.011 1.648-2.809-.668-.423-1.378-.502-2.181.16-.734-.95.831-1.617-.533-2.646.657-.077 1.76.762 1.33-.266.445-.435 2.574 1.305 1.807-.636.861-.328.279.456.746.952.194-.132 2.952-.854 2.87-2.226 1.767-1.058.17 2.835 2.074.687.001 1.102.393 1.563 1.597 1.059zM112 164.692c-.66.669-1.823 1.265-1.401 2.089.693.978-1.298-1.523-1.599-3.44 1.103-.51 2.172-.712 3 1.352zm-2.502-19.903c-.698 1.204-.616 3.461-2.172 3.262.312.708 2.723.583 1.847-.655 3.043 2.14-3.406 1.464-1.899 4.619-1.148.32-.762-.833-1.14-1.465-.577 1.856-1.4 3.047-3.314 1.793-.066.729-1.113 1.333-.704 2.12-.456 1.953-.644-1.984-1.415-2.825-1.988.425.842-1.256 1.25.598.535-.595-.495-1.957-1.142-1.466 3.07-.696 1.177-4.05 1.353-7.333 1.303-1.017 2.265.716 3.586-.437-.166.862 1.251 1.92-.324 2.608 1.46 1.213.68-1.282 1.954-1.522 1.835 1.11-1.29 1.603.545 2.715.14-.72.695-1.386 1.575-2.012zm-7.627.211c.346.564-.283.587-.497.342-.86.699 1.006 1.697.554 2.442-1.143.683-2.042-.372-2.928-1.513.494-.32.86.273 1.271.537.52-.472-.287-1.09-.664-1.661.79-.293 1.462.236 2.264-.147zm44.533 65.43c-.704-.779-1.676 2.206-3.145.057 1.16-.918 2.127-.282 3.365-1.814-.63-.937-1.422-.573-2.042-1.593-1.722.678-.741 1.694-2.096 2.42-1.17-1.187.04-2.08.827-3.024 1.195 0 2.33.487 3.64-.442-.39-.47-.907.088-1.379.276-.362-.491.307-.855.606-1.265-.573-.194-1.146-.4-1.656-1.098.693-.76 1.22-.194 1.876-.66 1.185-1.112-1.347-.321-1.546-1.978-2.025-.306 1.577-.232 2.15.714.803-.942-1.726-2.297.827-3.023.42.35.171.617-.11.88 3.755-.97 3.338 3.648 6.18.764.07.754-.742 1.396.166 2.254-.99.759-1.686-.86-2.758.551-.033 3.251 6.854 2.072 5.52 6.04-1.026 1.04-1.667-1-2.648-.326-.567.786.691.48 1.16 1.482-1.681 2.786-2.719.686-5.349 3.355.862-2.238-2.974.19-.663-1.868-.553-1.112-2.825 1.03-1.103 1.65-.633.295-1.105-.722-1.765-.22.97-1.851-1.22-1.303-.057-3.131zM144 205.207c-1.062.522-2.171 1.46-3 .056 2.163-.9.434-2.299 2.103-3.262 2.795.704-2.43.71.897 3.206zm-81.327-74.903c.658 2.607 4.466-.931 1.777-.634.198.31.364.618-.102.844-.502-.537-1.01-1.014-1.675-.21zm9.57-5.236c1.349.92 1.36-2.538 3.192-1.746.326.61-.27.635-.472.372-.781 1.13 2.11.877 2.879.79.315.754-.252 1.399.158 2.165-1.688.663-1.079-.295-1.937-1.53-1.295 3.053-1.991 2.114-3.606 5.126-1.513-.327-.424-.637-1.467-1.9.484 1.777-.988 3.308-2.299 4.86-.045-.577-.105-1.156-.629-1.795-.24.685.356 1.476-.679 2.062.056-1.561-.508-.572-1.467-1.902-1.974.611.827 1.82-1.148 2.431-1.38-2.908-4.208-4.021-4.765-6.178-.09-1.576 1.728-.525 1.15-2.43 2.786.398.892-2.67 3.348.42-.073-2.715 2.115-.716 3.87-3.806.314.754-.253 1.398.158 2.165.866-1.913 1.51-1.849 2.091-3.171 1.363.437 2.653 1.467 4.185.525.327.61-.267.636-.47.371-.49 1.083-2.223 2.01-2.092 3.171zm31.6 39.728c-.482.35-.838-.296-1.24-.585-.97 1.436 1.758 1.772 2.586.318 2.148-1.032-2.275 2.746.648 1.81.07.73-.724 1.353.163 2.183-.663.036-1.323.088-.97.746-.621.332-.647-.274-.376-.48-1.566.848-2.806-.906-4.311-.53.369.41-.17 1.99.649 1.81-2.108 3.163-4.794 2.46-7.81 2.933.011-1.296.019-2.592-1.673-4.098.737-.068 1.369.716 2.21-.16-1.093-1.764-2.74.897-3.719-1.756 1.405-.561 4.215 1.3 2.422-1.863 2.218 1.625 1.383 1.432 4.687 1.008-.925-1.917-2.448.907-3.34-1.276 1.892-1.125 3.393.858 5.065 1.488-2.347-2.97 2.893-2.664 5.01-1.548zM82.12 145.081c-1.29.868-.334 2.012-.813 2.981.595-.578 3.022.837 2.336-1.031-1.715.816-.346-1.405-1.523-1.95zm7.88 4.06c-.266.553-.54 1.107-.216 1.733-2.949-1.226-.77 1.438-2.551 2.767-.478-.895-1.118-.48-1.631-1.084-.31 3.931-2.129 1.703-5.159 2.443-.447-.455 1.338-2.625-.653-1.843.755-.828.61-3.889-.113-6.178-1-.404-.626.703-2.336 1.032.742-.482 4.1 1.109 1.904 2.437-.522-.505-.57-.952-.273-1.355-2.347.883-1.605-1.043-3.857-.918-.709.606 2.176-2.742.16-4.823 1.963-.406 3.995-1.364 5.703.267.512-.523-.281-1.21-.652-1.841.669-.04 1.333-.09.977-.76 2.425-.322 6.54 3.907 4.948 6.336 1.238.693 2.612.285 3.749 1.787zm37.46 57.551c-.15.737.742 2.065 2.326 1.975 1.077.975-2.37 1.399-.314 2.494-.65.037-1.298.087-.951.73-.867.336-.287-.743-1.11-1.404-1.083 2.079.05 1.978.796 3.9-1.841.765-3.113-.53-4.068 1.613.483-2.382-2.654-.823-2.222-2.806-1.937 1.598-1.336.636-1.215-.57-.972-.39-.61.673-2.272.988.168-1.575.58-1.037-1.005-2.234 1.407-.713 1.386-3.72-.425-3.431 2.07-1.136 4.707-1.276 6.073-3.904 2.252.117 3.677 1.539 5.284-1.043.422 1.07 1.685 4.386-.896 3.692zm-14.415-16.474c.616-.351.642.29.374.508 1.111 1.616 2.58.205 3.581 2.763-3.11 1.317-1.443.079-2.509 2.877-.937-1.794-2.51-1.122-2.246-3.045-1.114-.924-.295 1.232-1.815.679.66 1.76 1.646.757 2.351 2.141-1.886 1.27-3.275-1.677-5.236.23.694.26 1.492-.383 2.085.733-1.623 2.716-2.385-1.87-4.006.849.01-3.022-4.86-3.539-4.437-2.875-1.133-1.777 3.273-2.59 2.935-6.489 1.715-2.095 4.912 2.269 5.236-.23.728.034 4.387 1.648 2.245 3.045.395.336.855.11 1.23.62.26-.576.53-1.154.212-1.806zM141.7 231.3c.657.534 1.516-.535 2.299-1.01-1.856 3.397-3.593 2.915-4.918 4.576-1.367.731-.609-1.725.695-2.075-1.726-.246-1.308.289-1.125-1.435-.656-.121-4.205.259-2.406 1.863-1.687.802-.34-1.38-1.499-1.913 1.14-1.002 2.078-.403 3.156-.907.583-1.225-.897-2.704.907-3.778-2.066.016-1.257 5.696-4.705 2.876.478-.35.832.296 1.23.585.789-1.315-3.18-2.843-2.942-.796-1.383.609.853-1.85-1.393-2.765.621-.356.774-.77.588-1.224.416.864 1.51 1.918 2.249 2.87 1.272-.561-.03-1.443.693-2.075-.377-.455-.88.085-1.337.268-.905-1.255.908-2.52 2.032-2.342-.708 2.56 2.336-.73 4.76.156.633.727 1.197 2.004 1.98 1.542.588.583-1.699 2.851.16 2.181-.565.642-1.558 1.557-.424 3.403zM82 193.46c1.055-.154 2.021.425 2.899 1.737.23-1.49 1.557-2.84 1.42-4.376-1.17-1.353-2.815 1.237-3.884-.952 1.242-1.028.884-.103 1.258.617.99-2.116 2.086-2.37 3.718-1.35.562-.804-.684-.49-1.15-1.514.945-.929 4.972.922 2.79 2.636 1.736 1.343 1.146-.82 2.735-.564-.857-.256-1.677-.833-2.408-2.13.938-.4 1.625 1.251 2.734-.563-.828 3.484 3.437.245 3.557 3.644-.74-.003-1.443-.321-2.134-.727-.152 2.671 1.412 2.851 2.465 5.328-1.726-.422-3.51-.36-5.577 2.023-2.021-2.42-5.834-2.651-4.975.732-1.829-.751-1.512-2.265-3.448-4.541zm-27.17-49.523c.571-2.756 1.234 1.338 2.767 2.507-.539-2.422 1.21-.282 1.084-1.603 1.513-.828 1.22 1.492-.216 1.708 2.457.015 3.049 2.528 1.683 4.11 1.546.479.963-1.582 2.712-.535-.54 1.27-1.33 2.943 1.14 1.44-2.846 4.356-6.08 3.274-9.813 4.437-.275-.901-.166-1.754.323-2.562-1.545-1.093.152 1.674-1.57 1.976-.918-.98-.81-1.833.323-2.563-1.44 1.022-2.669.631-4.827-.156-.759-1.105.413-1.974 1.68-2.831-.704-.245-1.515.363-2.116-.692 1.128-.002 1.6-.395 1.084-1.603.732-.63 2.714 4.535 5.534 5.015.111-.614-.053-3.21 1.464-1.122-.438-2.564-1.866-1.953-2.767-2.508.363-1.95-2.595-1.538-4.287-4.428 1.663-1.54 2.858.619 4.23 1.385.222-.642.916-2.496 1.844-.642.425-.598.568-1.793-.272-1.333zm9.954 23.013c-1.234 1.502-1.975 1.471-1.996 2.347.617.198 4.954 5.44 4.573 1.01-2.177 2.428-1.214-.887-3.155-2.13.285-.397.922-.75.578-1.227zm10.199.42c-3.563-1.491-3.796 4.022-5.147 7.15-1.1-1.486-2.587.193-3.629-1.759-.422.67-.5 1.381.158 2.187-.603.286-1.052-.702-1.682-.212-.958-3.326-.883-2.355-3.683-4.798.94-.459.604-1.078.21-1.705 2.932.216 1.016-2.241 3.046-3.948l1.841 2.398c.323-1.115-.211-2.338 1.26-3.307.852 1.233 1.206.357.474-.375 2.08 1.164 4.428 2.298 2.84 4.692 1.915.895 1.39-2.086 1.63-2.827 1.166.105 2.89 1.144 2.682 2.503zm25.35 51.048c-.272.213-.245.84.38.496-.619-.825 1.14-1.35.703-2.152-1.445-.765-3.45-3.507-4.498-2.813 2.227 2.143-2.346 2.455 1.087 5.52.795-.495 1.663-1.605 2.328-1.051zm.16-4.912c2.302 1.007.742 2.31 2.549 4.358l.973-.773c-.383-.496-.056-.904-.271-1.38-.464.189-.972.75-1.354.277.602-.522.189-1.173 1.083-1.657-.856-1.407-1.81-1.994-2.98-.825zm-.97 7.948c.975-1.565 3.535 1.728 3.194-.94-.631.367-1.127-.365-1.625-1.103-.664.664-1.934 1.25-1.568 2.043zm6.662-.5c-2.72-.076-4.83 3.086-7.908-.107-.25.717.369 1.542-.704 2.154-1.033-1.477-2.748-3.04-2.547-4.359-2.247-1.34-2.762 1.903-4.442.334 1.68-.396 3.495-2.46 4.872-3.867-.739-1.142-1.9 1.147-2.816 1.438-.738-1.154-1.605-1.264-2.598-.33-.424-1.981 2.512-1.768 3.302-1.824.535-.606-.494-1.988-1.139-1.49.357-.42 2.954-1.973 1.57-2.042.084-2.771 3.262-.536 4.44-.335 1.032-.936-1.587-.749-1.896-2.482-.184 1.103-.618.801-1.462 1.16.372-1.725 1.57-2.648 3.032-3.203 2.189 3.69 4.883 3.246 7.045 7.17.404-.846.096-1.78-.544-2.76 2.306.895 6.007-.557 6.61 3.529-.72-.116-1.56.763-2.22.167-1.12.754 1.125 1.936 1.41 2.869-1.117-.276-3.24.586-.974.774-.024 2.314-2.523.52-2.493-1.212-1.21 1.88-.012 1.594-2.544 2.815 1.633.24 1.193-.315 2.006 1.6zm4.82 11.825c-1.339-2.962-4.132 1.5-1.48 1.154-.47-.87.815-1.187 1.48-1.154zm-2.91-1.704c.744.004 1.447.316 2.14.715.566-.788-.686-.481-1.153-1.484l2.469-1.927c.824.775.322 1.38-.11.88-.469.388.088.904.276 1.375 1.28-.337 1.706-1.173 2.91 1.702 1.357-1.17-.701-2.767-1.704-4.233.773-.827 1.375-.322.877.11 1.49-.03 3.037-.523 4.608-1.212.576 1.994 2.19 2.29 3.57 3.57.364.794-3.8 2.49-1.04 4.785-.348.418-.616.171-.878-.11-.469.39.087.905.274 1.376-2.096-.018-1.883-1.881-3.292-2.197-1.463.984.234 3.244-1.866.66-.439.69-.522 1.424.166 2.255-.35.418-.615.17-.878-.11l-.987.771c.059-1.724-.023-2.33-1.813-3.353-.511 2.318-3.332.256-4.664-1.922.732-.505 1.46-1.008 1.094-1.65zM74 170.068c-.72.95-1.271.387-1.813-.248-.534.602.293 1.39.682 2.117-.654.337-1.136-.817-1.815-.247-.411-1.607 1.635-4.15 2.946-1.622zM32.51 147.36c1.252-1.01.572 3.379 1.823 2.368.344.686-.563 1.212-.936.738-.524.647.525 1.492.99 2.263.208-1.59 1.137-.979 2.342-1.844-.367-.45-.856.085-1.301.264.108-.984-.76-2.092-1.721-3.21 3.252-.77 5.192.773 5.42 4.102 1.42.96-.063-2.265 1.873-1.475-.073 1.274-.681 2.48-1.716 3.635-1.314-1.884-.516.13-1.77.633-.034-1.146.448-2.226.414-3.371-1.634-.04-.307 3.634-3.176 1.74-.675 1.387 2.077 1.314.888 3.106 1.988.505 2.535-.345 3.905-.793-.53 1.502-1.665 2.929-1.82 4.478-1.42.181-1.313-4.034-4.166-.524-.53-.923-.027-1.715 1.144-2.423-1.079-.168-2.126.18-1.928-1.527-1.222 1.273-.272 2.819-.519 4.213-.852-2.008-1.415-4.886-5.108-6.63 1.063-.613 1.905.559 2.97-.055-1.196-.82-3.566-.736-1.357-2.737-.773-1.735-2.06.694-2.761-1.63.983.075 1.279-.346.572-1.212 1.08-.755 1.746 1.853 2.658 2.473.374-1.134-1.963-3.28.778-2.897-.992 2.237.855 1.51 2.19 2.842.123-.84.227-1.682.311-2.527zm37.226 43.667c.928-.514.666 2.233 2.526.33-.11 1.036.768 2.2 1.738 3.376-1.25.934-2.173-.898-3.158-2.212-2.425 2.434-4.684 3.468-6.576 1.388.224-1.792 1.091-.54 2.262-1.054-1.027-2.16-2.613.397-3.737-.938-.493 1.135-.96 2.273.423 3.654-.846 1.132-1.377-.4-2.157.166.032-1.18 1.774-2.665-.632-1.881.152-.697 1.56-2.017 2.577-3.712-1.108-.281-2.058-1.888-3.369-.44-.183-.924.325-1.756 1.156-2.548-.906-.78-1.945-.415-2.789-1.714 1.385-3.774 4.864 1.001 4.104 1.437-.528.68.531 1.57 1.001 2.381-.668-1.288 1.401-2.216 1.261-3.434.689-.59 1.767 2.577.896 3.265 1.682 1.033 2.014-1.77.314-2.657 1.325-.359 2.532.287 3.632 1.825l-2.366 1.939c1.373.829.941.932 2.684 2.6.259-.566.523-1.13.21-1.771zm-.402 44.155a7.222 7.222 0 0 0-2.112.446c-.33.483.375 3.193 1 2.35.353.786-.877 1.365-1.522 2.022-1.614-3.169-4.066.671-5.887-.761 2.584-1.742-2.183-3.067-1.79-6.447 1.118-1.022 2.225-1.948 3.1-.93.532-.711-.608-.899-1.21-.6.28-1.775 4.418.074 4.363 2.784.389.325.841.105 1.21.599 2.495-2.198-.49-3.088 1.836-4.645 1.375 1.36-.151 2.347-.418 3.497.949.657 2.14-2.345 1.259-3.388 3.52 2.406.779 2.28 1.42 4.73 1.165.03 2.364.41 1.216-1.82 1.572-.153 1.543.617 2.201 2.07-1.067 1.039-1.946.441-2.85.056-.318.358-.206 2.778.6 1.852.796 1.355-1.255-.016-1.8 1.527-1.127 2.208 2.342-4.078-.95-2.343.009-.483.135-.797.334-.999zm13.918-20.897c-1.031 1.363-1.699-.202-2.651.532.767-1.662-.352-1.9-1.964-1.539.167-2.649 3.33-.238 3.29 1.274 1.595-1.241-.23-2.906.527-4.25-1.513-1.089.147 1.665-1.536 1.965-.367-2.487-.08-1.693-2.44-1.167-.35-.475.295-.826.582-1.222-.615-.833-1.318-.961-2.069-.69.921 1.928-1.117 3.484 1.17 4.463-1.314.17-2.714 1.039-3.871-.051.724-.63 1.998-1.19 1.536-1.967-1.107-.871-.294 1.16-1.802.639-.09 1.695-.565 2.67 1.274 3.611L73.868 217c-1.302-1.402-.512-3.347-2.868-4.672.569-1.889 1.541-1.346.794-2.924 2.558.087 2.73-3.386 6.152-.96 2.002-.613-.838-1.83 1.164-2.444 1.17 2.145 2.535 2.72 4.137 1.379-.748 2.604 1.669 1.283 1.753 3.24-1.93 1.267-1.672.94-1.748 3.666zm3.66 16.541c-.309-.873-.236-1.702-.545-2.574 1.95-.978 2.023 1.614.545 2.574zm.272 1.287c1.136 3.551-5.1-.704-3.905 2.887-1.368-.492-1.23-1.682-3.258-2.059.726-.471 1.445-.945 1.085-1.545-.807.132-1.47.706-3.094.054-.234-1.22 3.031-.965 4.07-.776 1.188-2.048-1.702.147-2.01-1.491.63-.344.786-.745.598-1.186.734.003 1.43.297 2.116.669.52-.569-.265-1.286-.76-.927-.777-1.087 1.723-.308 2.44-1.804.048.564.108 1.128.652 1.75.146-1.508 2.032-.482 1.193-2.37.633.043 3.15.81 1.465-1.081 1.283.296 2.698-.408 3.744 1.697.512-.497-.28-1.15-.651-1.752 1.108-.599 1.986.546 3.093-.052.473 2.496-3.624 2.002-3.253 4.636 2.477-2.033 2.928.095 2.282 2.78-.493-2.271-1.26-.899-2.77-2.419-.324.608 1.909 4.244-.705 2.009-1.392 1.44 3.065 2.619 2.118.67 2.213.83-2.275 3.032-3.418 2.524.04-.692-.333-1.434-1.032-2.214zM53 175.442c-1.186-.6-2.512.158-3.801.558-1.09-2.905 2.602-2.241 3.801-.558zm53.167 69.938c-.463.495.105.66.364.46.658 1.762-1.668.427-2.237.973.686 1.255 1.647.345 2.291 1.941-2.005 1.326-.924.977.158 2.097-.631-.03-1.85.265-1.405 1.075-1.682.66-.894-1.696-1.825-2.3.186 1.13-1.134 2.077.419 3.374-2.77-1.044-4.869-.223-4.998-.61-2.272.473.44-1.825-.523-2.557 1.123.046 2.103 1.212 3.23 1.225 1.374-1.354-.527-3.11-.68-4.652 1.427-1.254 2.626-.702 4.111-2.406.595.87 1.343.532 1.928 1.483-.331.388-.585.157-.833-.103zM41.89 170.157c.236 1.488 1.763 1.703 1.293 3.757-1.25.382-2.69-2.995-1.293-3.757zm1.99 1.6c1.083.284 1.44.797.646 1.88.53 1.004 1.9-1.472.698-2.157 2.679-.865-.098 4.792 2.742 2.597.427 2.625-3.42 2.569-3.115 4.092-.635-.507-1.998-1.317-4.03.831.03-.528.827-3.075-1.023-2.376-.688 1.028.1-1.127 2.31-1.05-1.112-.178-2.193.186-1.99-1.602-.915.63-.558 1.424-1.557 2.045l-1.129-1.49c1.285-1.103 1.6.047 1.933-1.55-2.145-.582-1.89 1.264-2.366-2.098 2.723 1.476 1.118.007 2.417-1.937.77 2.068 2.09-.43 3.172-.942.923.788 1.796 2 2.956.827.148 1.067-.408 2.044-1.665 2.93zM55.835 186c.71.052 1.143.88 2.514 2.358-.877.704.378 1.68-1.083 2.31.647.165 1.329.045 2.02-.151.035.618.082 1.232.691.902.284 1.62-2.268-.793-3.253.404L55 189.565c1.053-.106 2.11-.988 1.922.65 1.127-.671-.504-1.694.294-2.409-1.12.585-1.417.196-1.38-1.806zM17.65 164.993c-.291.404-.245.85.267 1.355l.957-.758c-.375-.49-.056-.889-.266-1.357-2.488.738-1.955-1.252-4.153-1.406-1.56 1.858-2.3 3.818-2.446 5.856.274-3.354 5.063.966 3.513-.436-1.611-1.672-.687-3.023-.321-4.445-.364 4.33 1.392 3.01 2.449 1.19zm10.064 6.119c-1.182.241-2.257-.396-3.62 1.302 1.445.638 3.721 1.247 2.612 3.413 2.935-1.243.53-3.162 1.008-4.715zm-2.556-.324c-2.133-.938-.24-.197 1.064-1.626-.166 1.05 1.167 2.33 2.45 1.19.704 3.021-.029 1.468.323 4.444 1.662.55 3.503-.361 5.004 1.515-.992 1.036-1.898 1.38-2.767 1.411-.359-.633.559-1.104 1.063-1.627-1.552-.45-4.457 2.636-3.936 3.905-.888-2.898-4.942-1.823-7.187-1.35-2.813-3.288-2.393.238-4.42-2.762.835-.628.963-1.345.69-2.114-1.52-.477-.905 1.278-2.768 1.412-.037-.669-.088-1.333-.745-.976-.732-1.236.422-2.135 1.542-2.007-1.018-1.008-1.355-1.932-1.385-2.816-.93 2.583-1.073-2.223-3.513.436.193-3.748-1.236-6.531-3.574-9.7.729-.643 2.007-1.215 1.543-2.008 1.203-.516 1.597-.044 1.598 1.084 1.322-2.719 4.54-2.593 6.653-1.36.36.633-.559 1.104-1.064 1.627.49.725.978 1.443 1.599 1.083.349.485-.298.843-.585 1.247 1.893.905 1.018-2.17.795-2.982 2.076.625 1.926.804 3.78.92l-1.914 1.519c.428 1.653 3.689.112 1.49 1.95.517.51 1.19-.281 1.81-.652-.22 1.83-.85 2.528-2.605 3.633 2.63 1.379 2.259 3.898 3.25 5.256.515.51 1.188-.282 1.81-.652zm60.497 80.573c-1.201 1.616-.66 1.196-2.24 1.025-1.077.738 1.083 1.892 1.357 2.803 1.58-3.713 5.246 2.436 7.974.589.7 1.257.945 2.457 1.253 3.664-.57-.391-3.58-.376-1.875 1.511.465-.232.3-.545.103-.862 1.714 2.302-2.435.045-3.023-3.018-.697.494-1.39.99-1.042 1.618.737.627.506-1.089 1.303-.27 1.396 1.541-2.343 1.518-.884 3.829-.667-.857-2.467-1.055-2.606.54-2.35 1.116.67-2.644-1.095-1.455-.796-1.616 1.29.156 1.771-.647-1.27-.195-4.539-1.888-4.637-.159-2.202 0-.093-1.397 1.04-1.618-1.068-.505-2.14-.983-3.439.433-2.314-2.498-2.013-2.419-2.61-6.469-.046-2.524.123 2.214 1.564 1.08 0 .887-1.534.753.523 2.694.476-2.425.37-2.643 2.916-3.13-2.204-.727-1.045-1.053-1.928-1.561-.28-.62.685-1.08.207-1.726 1.908-.825.91.715 2.294 2.048-.55-2.818 1.833.429 3.543-1.297l1.461 1.94c-.75.362-1.303-.9-1.93-1.562zm-23.654-21.922c-.08-1.42 2.165 1.367 2.66-1.439-.119 1.48 1.994 3.26 1.13 4.64.454 1.888-2-4.33-3.79-3.201zm1.33 3.023c-.977.613-.628 1.398-1.523 2.023 1.256 1.166 2.779 5.47 1.84 2.457 1.229-.896 2.183-.26 1.522-2.023-.876.19-1.666-.337-2.417-1.2.674-.374 1.539-.016.577-1.257zm-11.982-25.24c-.039-1.904.658.756 1.096 1.438-1.535-.565-.773 2.12-2.138.161-.445.377.083.877.262 1.332.503.502 1.163-.275 1.772-.64-.046 2.572 3.03 3.467 1.776 6.287 1.487 1.091-.145-1.671 1.511-1.972.53 1.366.688 2.684-.884 3.784-.746-.842-1.53-1.357-2.4-1.171-.843 2.746 2.478.188 3.13 2.13-1.862-.817-2.543 1.51-1.041 1.6 1.018 1.35-2.15-.124-.209 1.705-2.755-.44-3.085 1.105-5.423-4.153.745-.323 1.38.256 2.136-.162 1.6-3.353-4.237-2.327-4.85-5.38-1.096.5.164 3.4 1.357 2.771.83-1.08-.715 1.117-1.979 2.346 2.863.937-1.333.187-.676 2.079.64.535 1.477-.538 2.24-1.015l1.461 1.918c-.614.933-3.196 1.615-2.449 2.72-1.622-.765-2.79-2.833-2.348-5.062-1.393.979.32 2.35-2.083 3.199.235-1.626-1.193-1.87-2.192-2.876.571-.046 1.143-.105 1.772-.64.722.669.186 1.178.628 1.811.31-.393.1-.852.571-1.227-1.528-1.563-2.97-1.361-3.39-3.46.926-.653 1.533 1.325 2.503.317-.43-1.033-1.613-.8-.888-3.144.736-.25 1.43-.152 2.034.692 1.045-1.503-.02-1.138-.992-2.29 2.32-.926 3.534-.958 3.49-4.32 1.035 1.431 1.889 2.838-.051 3.89 1.827-.336 2.762-1.873 4.221-3.36 1.083.276 1.463.776 1.46 1.918.605-.357.754-.771.573-1.227zm-1.49 14.795c.733 1.194-1.623.34-2.299 1.983-1.677-1.302.872-2.025 1.584-3 .034.697.084 1.39.715 1.017zm-12.547-23.973c-2.1.883-1.72-2.572-3.136-2.27-.583 1.495 3.383 4.672 3.136 2.27zm1.984-2.502c.257-.58.519-1.16.208-1.819 1.781-.592.59 2.17-.312 2.729 1.512 1.621 3.393.012 4.807 2.497-4.404-2.092-2.186 2.843-6.895.914-1.207 1.9 1.422-.948 1.568 1.135-3.977.068-8.516-1.611-8.673-5.79l1.879-1.592c1.604 3.071 7.03-3.722 6.216 1.303.386.337.836.11 1.202.623zM142.4 167c1.76 1.395-.798 3.148-2.058 2.99-.61-1.802-1.088-1.083-1.343-2.59 1.145-.217 2.056 1.375 3.4-.4zm-10.306 17.205c-.362 1.913 3.649-.537 4.717 1.862-1.984 1.255-3.31 1.114-4.879 2.878-1.003-.374-1.901-1.559-3.162.055-4.791-2.276-3.144-4.955-4.771-4.896.612-2.753 3.627-.304 3.602-3.464 1.4 1.905.55-.13 1.885-.64.947 1.96 2.236 1.285 3.219 2.98.19-1.064.633-.772 1.496-1.119.365.476-.309.829-.61 1.225.935.9 2.298-1.508 3.272-.908.94 2.55-3.237 1.591-4.769 2.027z" fill="#F1F2F8" fill-rule="evenodd"/></svg>