<svg width="570" height="570" xmlns="http://www.w3.org/2000/svg"><path d="M374.626 210.967c.21 2.404.752 4.724 1.565 6.897a15.668 15.668 0 0 0 2.906-.45 18.305 18.305 0 0 0 8.072-4.42c2.324-2.208 4.152-5.19 4.56-8.295.446-3.11-.242-6.297-1.896-8.406-1.623-2.15-4.392-2.88-7.08-1.664-2.68 1.125-5.086 3.747-6.53 6.716-.72 1.483-1.172 3.102-1.44 4.737a21.115 21.115 0 0 0-.157 4.885zm139.45 64.85c.553.17.507.295-.049.133l-68.14-19.735c-11.37-3.328-22.748-6.573-34.124-9.99-5.679-1.75-11.289-3.796-16.633-6.472-5.286-2.757-10.376-6.143-14.405-10.907-1.059-1.13-1.918-2.472-2.844-3.743-.425-.673-.81-1.38-1.216-2.07l-.597-1.044-.507-1.113c-.083-.168-.15-.35-.232-.52a21.226 21.226 0 0 1-5.357-.654c-3.019-.762-5.787-2.087-8.367-3.64-5.122-3.169-9.751-6.972-14.08-11.2a92.95 92.95 0 0 1-11.7-14.07c-1.738-2.546-3.347-5.258-4.86-7.953-1.522-2.675-3.052-5.301-4.945-7.45-3.798-4.361-6.847-4.595-6.653-5.455.04-.172.264-.314.694-.41.214-.045.483-.09.796-.1.307.011.665.04 1.072.094 1.607.238 3.89 1.33 6.006 3.732 2.105 2.362 3.708 5.106 5.256 7.79 1.534 2.697 3.088 5.284 4.803 7.781a91.996 91.996 0 0 0 11.46 13.71c4.212 4.108 8.792 7.867 13.698 10.906 2.461 1.488 5.052 2.72 7.8 3.418a20.01 20.01 0 0 0 3.185.54c-.672-1.963-1.172-4.043-1.397-6.24-.34-3.542.051-7.453 1.777-11.107 1.72-3.551 4.53-6.686 8.015-8.151.86-.38 1.764-.584 2.657-.706a8.167 8.167 0 0 1 2.635.17c1.702.401 3.154 1.431 4.223 2.769 2.133 2.703 2.984 6.487 2.47 10.37-.249 1.928-.96 3.964-1.944 5.665a19.41 19.41 0 0 1-3.617 4.594 21.033 21.033 0 0 1-9.372 5.074c-.61.152-1.22.257-1.828.342l.198.448.559.99c.378.656.731 1.334 1.13 1.973.868 1.216 1.669 2.5 2.67 3.589 3.786 4.59 8.67 7.944 13.805 10.71 5.194 2.692 10.7 4.794 16.315 6.615 11.267 3.568 22.607 6.997 33.899 10.5l67.743 20.818z" fill="#4FD7F5" fill-rule="evenodd"/></svg>