<svg width="380" height="380" xmlns="http://www.w3.org/2000/svg"><g fill="#EBAE55" fill-rule="evenodd"><path d="M144.798 113.065c-8.761-28.807-16.896-58.05-23.601-87.447-.041-.18-.223-.145-.194.039 4.675 29.77 10.154 59.94 19.928 88.673 1.231 3.622 4.973 2.373 3.867-1.265M122.127 115.41c-27.251-13.677-54.174-28.52-79.94-44.878-.16-.1-.265.054-.114.164 12.294 9.032 24.847 17.889 37.85 26.117 12.998 8.226 26.448 15.82 40.408 22.272 3.523 1.63 5.237-1.946 1.796-3.674M110.73 136.5c-11.923.269-23.872 1.763-35.68 3.7-.074.012-.062.215.012.217 11.95.323 24.064 1.894 35.937.544 1.498-.17 1.238-4.495-.269-4.46"/></g></svg>