<svg width="380" height="380" xmlns="http://www.w3.org/2000/svg"><path d="M296.859 55.466c.162.027.318.08.463.161 2.578-1.068 3.17-5.395 5.898-5.025-3.308 6.423-13.684 11.04-14.666 15.487-.84 1.29-4.965.393-4.752 3.342-1.61-.392-5.557 1.77-4.279 3.252.294-1.03 1.55-1.41 2.001-2.335 1.756 1.975-1.351 1.731-2.29 3.368-.63-2.862-5.751 2.804-7.503 4.35-1.342-1.07 1.9-2.523 2.764-3.457-1.4-.52-2.655 2.56-4.843 2.87.29.382.58.766 1.13.765-.639 2.807-4.887.728-5.698 3.521.275.681 2.448-.763 2.658-1.48-.26 1.335-7.294 7.712-8.175 5.944-1.297.67-.396.807-.106 1.977-3.957 2.514-6.707 5.847-10.65 8.37.729.901 2.255-1.318 3.026.408.664-.338-.304-.568-.275-1.416 1.563-.692 2.171.506 2.841-.535-.472-1.017-.627.711-1.512-.205.005-1.76 2.093-1.081 2.842-.535 11.467-8.489 23.12-17.874 34.99-27.145-4.183 5.095-12.263 11.101-18.457 16.201-.018.838.543.82 1.132.766.058.996-1.679.777-1.62 1.773-.91-.187-.236-.845-.275-1.417-1.667.375-.266 2.828-1.253 3.663-1.726.136-3.657 1.872-3.04 2.04.032.933-3.362.537-2.08-.587-1.776.46-2.354 1.44-1.435 2.718-6.036 3.566-11.087 7.799-16.915 11.505.102.457.651.258 1.04.294-10.534 6.208-18.908 14.117-31.814 18.226 1.425-1.311 1.143-1.63-.841-1.8 5.362-2.21 11.619-8.906 18.138-10.267 3.078-3.792 8.343-6.103 12.453-9.197-2.696-1.477-6.097 3.099-8.45 4.528-1.67.835-1.094-1.63-2.645-.97.344-1.228.884-2.516 1.817-3.654-3.733 1.644-7.603 4.26-11.634 4.127-.416-.974.508-1.039 1.248-1.227-1.453-2.682-2.209-2.755-3.558-5.74 8.501-6.402 13.832-14.958 24.325-20.007-.5-1.573-1.605 1.624-1.608-.678 6.428-1.66 9.415-7.192 14.734-10.745-2.52-.045-5.703 3.038-6.892 5.281-.539-.02-.502-.887-1.132-.77.122 2.216-2.36.512-1.837 3.318-1.676-.123-.619-.986-.362-1.906-1.389.353-2.705 1.85-3.718 1.21 1.132-1.682 1.396-1.484 3.537-2.165 1.874-3.015 4.978-5.197 7.957-7.463-.196-2.983 2.405-6.003 4.24-6.253.954-3.557 10.245-10.252 12.08-1.34-7.43 9.76-16.731 18.249-27.702 25.6-.355-1.071 1.275-.795 1.156-1.705-4.28 6.663-11.396 14.186-20.041 19.182.626.925 1.742-1.269 3.241-1.12.118.91-1.511.635-1.156 1.705 3.245-2.004 7.864-6.024 8.707-6.124 7.214-7.015 19.062-14.758 26.341-22.373-.029-1.179-2.118.682-1.7-1.155 7.3-3.896 10.021-10.904 16.3-15.495 2.645-.238 2.85 3.12 4.33 4.602-.638 3.166-5.612 3.383-5.58 7.005-1.289.293-1.107-.61-1.903.367-3.816 4.747-8.247 9.077-12.99 13.195.305-.11.608-.193.907-.24 4.079-5.44 12.395-8.008 16.549-13.395 1.561-.207 2.064-1.54 2.552.498-1.915-1.092-1.288 2.165-2.95 2.513 2.872-1.71 8.808-4.825 8.573-8.955.477.21.957.41.946-.178.773-.326.967.2 1.131.764 2.345-.657.677-1.899 1.91-2.805.872 2.331 3.28-2.203 2.277-.92-.497-.3-.434-.783-.087-1.213-.782.654-1.609 1.277-2.087 2.146.846-2.099 6.253-8.126 8.74-9.33.284 1.454-1.666 1.337-1.946 2.396 2.328-.088-1.277 2.6-2.517 3.889zm-.447-.017c-.116-.178-.15-.481-.245-.692-.244.415-.568.773-.927 1.108a2.634 2.634 0 0 1 1.172-.416zM236.62 100.8c-1.643.07-1.585 2.403-2.618.554 1.262-.818 3.063-3.433 4.4-2.824.2.253.197.474.098.67a8.19 8.19 0 0 0-1.88 1.6zm2.558-1.982a9.6 9.6 0 0 1 .172-.086c.249-.326.455-1.406 1.339-1.136a1.76 1.76 0 0 1-.294.7c.408-.146.844-.274 1.31-.384-.063-.427.055-.824.31-1.206-.139-2.405 2.947-2.616 3.572-4.501-3.338 2.482-5.707 3.946-6.71 6.233.124.243.22.355.301.38zm6.603-4.887c1.184-.698 2.448-1.454 3.533-2.346 1.893-1.558 2.165-1.93 3.805-3.162.508-.383 1.073-.899 1.68-1.489-2.976 2.353-6.003 4.67-9.018 6.997zm77.639-8.324c2.836-3.158 7.504-7.157 12.162-7.72-.069 1.505 1.072 1.228 1.004 2.733-3.722 2.2-8.913 6.846-13.166 4.987zm-41.338 8.372c-1.587-1.208-4.54 1.684-2.407 2.935-.705-1.715 3.091-.343 2.407-2.935zm-35.24 22.6c.923-1.415 3.421-5.006 8.13-4.036.293-1.658-1.613-.068-1.318-1.725 1.604-.573 4.659-.16 4.586-1.871-2.49.574 1.98-3.81 3.634-1.687.012-1.037-.568-1.201-.84-1.817-1.922.086-2.66 2.226-4.201 1.3 1.638-1.966 2.93-2.14 5.358-3.007-.265.512-.729.89-1.249 1.23 7.932-1.927 14.496-11.303 22.706-15.74-1.156-.92.017-.555.205-1.524 1.126.06-.438.855.748 1.34 6.946-6.623 14.728-14.483 23.114-18.787.135 1.906-2.652 3.996-2.042 4.845-4.794 3.433-11.013 8.17-16.394 12.548-.44.359-.509 1.065-.68 1.616-1.038-1.245-1.274-.3-2.954.071.736 2.37-3.98 6.559-6.741 8.716-.735-.078-.032-.428-.181-.954-4.198 1.92-4.476 5.123-9.764 5.833.02.99.381 1.476 1.225 1.249-.483 1.1-1.731-.153-2.768 1.027.1.462.653.259 1.044.295-2.472.78-6.96 2.756-7.766 5.943-1.003-1.222-.997-.11-2.951.072-.023.846.542.83 1.135.772-6.371 5.038-15.632 9.93-19.346 12.621-6.475.981-9.704 8.726-17.029 9.208-.657-.866-1.3-1.753-1.976-2.589 7.427-5.803 17.54-9.605 22.501-14.217.76-1.35 2.709.69 3.814-.733zm-12.272 3.033c.86-.105.89-.776 1.804-.844-.578-1.362-.927.651-1.893.37 1.214-4.603 7.358-5.343 9.93-9.814.94-.177.844 1.177 2.071.581.662-.345-.302-.572-.268-1.426 3.918-1.589 7.647-4.408 11.59-6.197-.322-.333-.639-.675-.74-1.333 3.255-.131 2.624-2.907 6.357-2.716-.027-.567-.264-.824-.652-.857 7.59-1.898 13.82-11.467 22.644-15.246.574-.714.376-1.952.974-2.65 5.51-.83 6.912-4.295 10.82-5.065-.017-.984-.375-1.468-1.213-1.24 2.311-2.492 4.46-2.917 6.947-4.8-.633 2.468-3.94 3.118-5.437 4.998.481.29 2.061-.588 2.25 1.532-.463.076-.477-.51-.652-.858-1.408.146-1.254 1.357-2.663 1.503.214.493 1.003.139 1.127.766.376-.435.554-1.004.679-1.61-.754 3.413-9.934 8.85-14.868 12.253-.995 1.119-1.699 2.434-3.903 2.73.382-1.26 2.337-1.448 2.957-2.545-1.095-.583-2.316 2.273-5.027 1.962.554.398 1.116.78 1.686 1.15-.707.762-.937 1.847-2.57 1.979-.35-1.067 1.268-.795 1.152-1.702-1.48.236-1.07 1.757-3.135 1.595 2.795 1.87-8.544 8.65-10.465 6.964-1.169.032.67 2.112-1.152 1.7.018-.401.385-.565.295-1.042-.86.105-.89.777-1.804.844 1.836 1.918 4.39-1.7 5.68-1.106-2.794 4.176-11.43 4.374-12.949 9.416-1.904-.72-7.22 3.605-6.946 4.801-5.379 2.292-9.46 7.748-14.993 6.368-.783-1.635 2.456-1.528 2.367-.46zm48.306-1.472c-.96 4.81-10.536 9.679-12.314 7.768.638 1.536-.679 1.744-.972 2.65-4.115 1.039-9.51 6.592-13.283 10.416 4.752-4.256 12.16-6.931 14.71-10.69 5.188-.637 9.855-7.338 14.693-8.221-1.373-1.316-1.867-.757-2.834-1.923zm-32.858 11.193c.19-1.378 1.615.38 2.854-.544-.271-.617-1.266-.168-1.993-.112 10.254-8.537 24.84-17.243 36.01-25.589 3.112-2.327 6.298-5.695 7.558-6.862.723-1.373 2.031 1.068 3.329-.635-.743-1.513-.93-.067-2.47-.023 1.493-1.86 5.115-5.345 7.063-4.302-1.706.771-1.542 2.812-3.825 3.192.103.865.775.892.84 1.81-6.338 2.654-8.426 8.938-13.283 10.418 3.26.796-6.555 4.547-4.867 2.898-2.37 3.581-5.045 4.439-7.741 5.912l.364 1.9c1.96-1.2 2.894-1.901 5.82-3.08-3.635 3.21-8.011 8.036-13.083 8.9l.364 1.9c6.277-3.035 9.8-8.258 17.566-11.233-3.738-.114 7.82-6.904 10.137-8.83-.183-.542-.943-.235-1.519-.203 7.702-5.7 14.15-9.142 20.075-16.145 3.018.713 3.205-3.076 6.203-3.647-3.026 4.141-7.03 7.73-9.956 9.782 1.082 1.594.499-1.24 1.812-.84-.479 2.421-2.716 1.373-4.868 2.901 1.737 1.26-2.812 4.433-2.872 3.012-1.154.274.2 1.59.749 1.335.12 1.246-.945-.498-1.903.363.104.458.653.256 1.043.293-1.894 2.755-5.295 3.115-7.264 5.819.382-.291.77-.579.768-1.13 1.18.132-.79 2.462-1.72 1.312-1.276.65-.219 2.883-2.398 2.92.672 1.318 1.08-.845 2.378-.453-.776 2.571-4.598.51-4.21 3.76-.596-3.104-4.182 2.176-5.999 2.129 1.755 2.301 2.011-1.746 4.098-1.768 1.632 1.85-2.418 2.908-4.209 3.76 3.032.81 7.79-3.98 10.119-6.365 8.747-4.262 14.411-10.617 22.158-15.556-.693 3.663-6.232 4.039-7.466 7.335-1.521-.067-1.242 1.087-2.763 1.02-11.234 9.19-22.316 18.482-35.92 26.065-.094.295.9.465 1.044.294-1.893 2.238-7.727 6.254-11.545 6.636.102.46.652.258 1.041.294-3.568 2.707-8.112 6.857-11.746 8.153-1.243.721.934 1.137-.11 1.992-2.94 1.009-8.367 5.918-9.695.863 1.325-1.443 3.76-2.135 5.25-3.465-.842-1.12-1.318-1.234-1.023-2.761 1.657-.668 2.26-2.05 3.917-2.717-3.278-.425-4.912 3.827-8.49 4.574 1.764-2.072-1.21-1.032-1.59-3.146 6.973-5.328 14.114-7.89 18.06-13.79-1.884.651-3.347 1.588-4.39 2.808-.91.119-.632-1.508-1.702-1.154zm70.263-55.096c-.617-.094-1.08-.416-1.207-1.232-1.515-.071-.66 1.468-2.174 1.397.577 1.351.92-.645 1.882-.363-3.328 1.714-4.322 3.64-6.899 4.753-.054.288.836.467 1.027.29-2.626 2.405-8.86 6.891-12.116 10.65 3.405-2.337 6.13-5.138 9.831-7.275-3.325 2.688-6.21 7.325-11.243 7.55-3.747 3.305-10.446 7.307-14.292 12.046.825-.751-.425-1.602-.56-.38-.722-.076-.03-.422-.177-.942-1.44-.067-3.409 2.28-4.993 1.943.699-1.453 2.958-3.994 4.725-3.357.548-.585.703-1.44 1.054-2.158 13.95-9.542 26.47-20.058 37.947-31.282 1.607-.412 2.088-1.1 3.38-.165-2.39 4.18-4.31 3.878-6.185 8.525zm.28 33.1c4.497.727 7.304-6.709 11.503-7.21-.406 1.497-2.27 1.995-3.272 3.08.305.535.763.842 1.554.657-1.012 1.216-1.874 2.536-3.734 3.173-.173-1.619 2.275-1.444 2.348-2.894-1.3-.727-4.966 2.578-3.65 3.641-2.702.352-3.293 4.54-6.631 5.694-.037-.98 1.083-1.167 1.046-2.147-3.123 2.09-5.855 4.45-8.856 6.626.64 1.29 1.437-.579 2.31-.466.626 1.497-4.727 3.195-2.518 1.96-.558-1.337-.906.647-1.848.373 2.358-5.413 6.947-8.312 12.422-10.735-.416-.33-.668-.906-.786-1.677-3.596 2.428-7.038 5.017-9.248 7.337-.354.372-2.177.325-1.159 1.716-2.167-.754-1.898 1.78-3.872.278.202 1.453-1.037.407-2.664 1.52 2.157 1.62.088 1.757-.894 3.147 2.06-.379 3.62-.044 4.556-1.898.86.15.498 1.039-.298 1.048.098.87.764.892.824 1.816-.821.304-1.055-.257-.56-.383-.85-1.334-1.535.843-2.84.566.287.384.572.771 1.12.766-2.335 2.384-8.127 3.118-9.447 7.326-1.79.17-3.241.573-3.05 2.093-.555.017-.35-.425-.087-.476-4.543.691-10.07 8.207-15.426 9.508-.811.28-.927 1.037-.596 2.098-4.144 1.9-7.642 4.245-9.921 7.42-.746-.107-1.322-.467-2.069-.576.086-.32.841-2.072-.35-1.91 10.46-10.259 25.569-16.483 36.039-25.493-1.89-.885-3.819 3.625-5.889 2.657.099.87.764.892.824 1.816-2.52-.087-5.16.006-5.502 2.088-5.778.474-7.233 3.154-11.395 4.745 1.101-2.31 3.503-3.733 5.925-5.14-3.088.4.577-1.63 1.928-2.858-2.139-.683 1.532-2.598 3.349-3.142-2.741 2.485-.255.005-.508 2.576 1.718-.219 1.47-1.78 3.049-2.094-.477-.303-.522-1.25-1.209-1.243-.788.31.92 1.536-1.157 1.716.213-.484.415-.968-.175-.955.062-1.21 1.593-1.418 2.576-1.999-.018.405-.387.571-.298 1.05.532-.61 1.659-.816 2.191-1.427-.337-.667-.57.31-1.419.283-.04-.862.615-1.25 1.718-1.332.952 1.765-1.167 1.43-.983 2.67 2.65-2.088 6.113-3.62 8.204-6.089-2.057.38-3.63.222-6.274 3.23-1.858-1.028 1.579-1.956 2.488-2.475.039-.608-1.669-1.373-1.507-.195.958-1.555 5.72-3.77 9.238-5.8-.18-.544-.937-.23-1.507-.194 2.987-2.135 5.442-4.635 9.71-5.895.275.745-.297.911-.21 1.526 1.35-.379 2.834-4.485 1.754-3.813 2.085-.336 3.58-2.83 4.679-3.902 1.64-1.597 4.156-2.438 5.714-3.613 4.097-3.091 6.752-7.074 11.85-10.28-.615-.792-4.064-.025-3.698 1.232-1.576-1.45-3.007.104-5.205 1.038.842-1.93 2.951-2.995 5.154-3.996-.02.404-.388.57-.3 1.049 2.437-.562 2.25-2.917 5.328-3.042.009.797.6.734.737 1.338 5.803-2.996 7.984-8.466 13.007-11.995 4.669 3.993-2.71 10.66-6.206 11.628.898 1.658-2.691 2.552-3.087 4.574 1.56 1.272.073 3.452 2.505 2.965-2.376 2.691-5.349 4.975-7.94 7.52.426-.962 1.216-1.676 1.456-2.764-5.504-.76-8.119 6.265-14.355 7.315-1.322.694 1.23.496.823 1.816a168.248 168.248 0 0 0-5.329 3.432zm-53.288 7.13c1.155-.58 1.117-1.973 2.446-2.433-.532 4.972-8.285 5.011-9.868 9.263-4.719 1.184-6.8 4.367-9.712 4.856-.238-1.666 1.84-1.751 2.91-2.525-.837-1.067-1.937 1.1-3.168 1.118.667-1.869 3.38-2.342 4.597-3.835-2.167-.395-4.47 3.49-7.73 2.516 4.329-3.61 12.423-4.645 15.154-9.347.38-.164.473.096.55.377-1.672 3.305 4.154-2.422 4.821.01zm32.944 30.476c4.145-.55 9.094-4.016 12.054-6.739-.96.862-2.029-.887-1.907.363-.326.443-7.586 3.679-10.147 6.376zm8.643-21.895c2.198-1.727 8.206-7.176 10.625-6.466 1.238-3.467 8.064-7.5 12.644-8.826-.327-.335-.647-.679-.753-1.34 4.886-3.947 13.241-9.147 19.342-12.567-1.02-1.44-.977 1.212-2.295.93 1.56-4.328 9.2-4.535 10.076-9.325 2.396 4.482-7.146 6.349-5.415 10.415-1.79-.255-4.618 2.288-2.587 1.973-6.655 2.102-12.171 6.997-17.524 11.729 2.01 2.41 2.17-1.966 4.587-1.86-.014 1.921 1.481.359 2.369 2.02 1.664-1.91 5.298-2.482 4.806-5.855 1.679 1.534 2.268-.751 4.201-1.292-1.418-1.586 1.568-4.206 3.268-3.585-3.547 6.433-10.535 10.531-16.883 15.065a25.269 25.269 0 0 1 4.22-3.766c-1.594-.513-3.289 2.45-5.358 2.994.022.987.385 1.473 1.23 1.248-2.714 3.27-5.65 6.389-9.12 9.144 3.679-1.375 9.75-4.71 12.827-7.871 3.413.469 5.23 4.34 2.806 6.873.906 1.24.976-1.5 2.203-1.406-.72 1.078.178 1.207.459 2.383-1.207.563-2.285 1.212-3.065 2.065-.991-1.93-2.874 1.248-3.23-1.362-.922 1.225-3.517 2.152-4.77.907-.293 1.654 1.612.07 1.32 1.724-11.873 7.243-19.485 17.29-32.755 22.528-.627-1.523-2.543-1.15-2.643-3.448-5.605 1.529-7.095 3.659-11.67 6.17.102.462.654.26 1.045.296-3.529.879-8.694 8.39-11.267 3.13 8.044-8.906 24.07-14.608 31.233-22.733 1.436-.726 6.505-3.857 6.515-4.697.503-1.242 1.025-.948 2.294-.93 1.026-.471-.723-.632.201-1.52l2.863-.544c3.505-5.355 9.604-8.952 13.066-14.339-.98-1.601-2.17.33-3.524-.319-.454.534.236 1.06-.586 2.089-.465-.337-1.362-.035-1.616-.682-.453.532.236 1.06-.586 2.089-7.793 2.483-13.448 5.793-17.91 12.295-1.218.253-.651-.244-.662-.86-9.806 7.178-19.3 14.464-30.462 21.597-.082 1.344 1.164.733 1.707 1.157-2.251 1.65-4.198 3.505-7.56 4.402-.098 1.697-1.828 2.39-4.883 2.904-.02-1.6-.752-2.155-1.118-3.245 4.086-3.595 10.765-6.573 14.46-9.666 7.284-6.096 19.56-13.1 27.875-19.623zm-.128 34.994c-.301 1.25 1.216-4.145-.362-1.919 1.856-2.618 9.583-5.8 14.61-9.287 2.386-1.657 5.5-3.49 8.453-5.115-7.5 3.097.03-1.508 3.191-4.096-4.278.856-7.96 5.728-12.966 7.48 1.8-2.915 4.88-5.401 8.479-7.606 5.766-3.53 12.393-7.895 18.525-9.549-.915 3.416-5.36 4.431-7.612 6.94.587 1.376.936-.656 1.914-.37-1.871 1.954-5.32 1.39-5.106 4.467-1.764.287-3.346 1.689-6.335 3.214 2.19.684-2.755 4.763-4.718 3.896.303 1.347-2.024 3.322-4.15 4.281 1.244 1.086 2.059-1.636 3.646-1.7-5.307 3.633-11.226 7.245-17.569 9.364zm23.871-56.315c1.767 1.598 1.147-2.167 1.563-2.962l2.052-.394c-.14 2.288-2.022 3.395-3.321 4.895-1.17-.76-.585-.862-2.15-.12.517-.87 2.094-3.305 2.686-2.644.354.838-.215 1.045-.83 1.225z" fill="#F1F2F8" fill-rule="evenodd"/></svg>